<svg xmlns="http://www.w3.org/2000/svg" xmlns:xlink="http://www.w3.org/1999/xlink" width="64" height="64" id="up-arrow"><defs><path id="a" d="M.06 64V.04H64V64z"></path></defs><g fill="none" fill-rule="evenodd"><mask id="b" fill="#fff"><use xlink:href="#a"></use></mask><path fill="#FFFFFE" d="M35.259 13.71c-1.792-2.28-4.726-2.28-6.518 0l-14.27 18.145C12.679 34.135 13.439 36 16.162 36H24v12a4 4 0 0 0 4 4h8a4 4 0 0 0 4-4V36h7.839c2.722 0 3.482-1.865 1.69-4.145L35.259 13.71" mask="url(#b)"></path><path fill="#4C5665" d="M47.839 36H40v12a4 4 0 0 1-4 4h-8a4 4 0 0 1-4-4V36h-7.838c-2.723 0-3.483-1.865-1.691-4.145l14.27-18.145c1.792-2.28 4.726-2.28 6.518 0l14.27 18.145c1.792 2.28 1.032 4.145-1.69 4.145zM32 0C14.327 0 0 14.327 0 32c0 17.673 14.327 32 32 32 17.673 0 32-14.327 32-32C64 14.327 49.673 0 32 0z" mask="url(#b)"></path></g></svg>